<?xml version="1.0" encoding="UTF-8" standalone="no"?>
<!-- Created with Inkscape (http://www.inkscape.org/) -->

<svg
   xmlns:dc="http://purl.org/dc/elements/1.1/"
   xmlns:cc="http://creativecommons.org/ns#"
   xmlns:rdf="http://www.w3.org/1999/02/22-rdf-syntax-ns#"
   xmlns:svg="http://www.w3.org/2000/svg"
   xmlns="http://www.w3.org/2000/svg"
   xmlns:sodipodi="http://sodipodi.sourceforge.net/DTD/sodipodi-0.dtd"
   xmlns:inkscape="http://www.inkscape.org/namespaces/inkscape"
   width="744.09448819"
   height="1052.3622047"
   id="svg2"
   version="1.1"
   inkscape:version="0.48.5 r10040"
   sodipodi:docname="Sly_Engine_Logo_V4_0.svg">
  <defs
     id="defs4" />
  <sodipodi:namedview
     id="base"
     pagecolor="#ffffff"
     bordercolor="#666666"
     borderopacity="1.0"
     inkscape:pageopacity="0.0"
     inkscape:pageshadow="2"
     inkscape:zoom="1.0978528"
     inkscape:cx="445.08437"
     inkscape:cy="609.17345"
     inkscape:document-units="px"
     inkscape:current-layer="layer1"
     showgrid="false"
     inkscape:window-width="1366"
     inkscape:window-height="712"
     inkscape:window-x="0"
     inkscape:window-y="27"
     inkscape:window-maximized="1"
     showguides="true"
     inkscape:guide-bbox="true" />
  <metadata
     id="metadata7">
    <rdf:RDF>
      <cc:Work
         rdf:about="">
        <dc:format>image/svg+xml</dc:format>
        <dc:type
           rdf:resource="http://purl.org/dc/dcmitype/StillImage" />
        <dc:title></dc:title>
      </cc:Work>
    </rdf:RDF>
  </metadata>
  <g
     inkscape:label="Layer 1"
     inkscape:groupmode="layer"
     id="layer1">
    <g
       id="g4750"
       transform="translate(-377.19821,128.17415)"
       inkscape:export-filename="/home/jana/sly_shadow_big_var1.png"
       inkscape:export-xdpi="90"
       inkscape:export-ydpi="90">
      <g
         transform="translate(229.03669,-279.48282)"
         id="g4213-5-0-1-3"
         inkscape:export-filename="/home/dave/Pictures/sly-logo.png"
         inkscape:export-xdpi="76.800003"
         inkscape:export-ydpi="76.800003">
        <path
           sodipodi:type="arc"
           style="fill:#ffccaa;fill-opacity:1;stroke:none"
           id="path2985-2-0-9-4"
           sodipodi:cx="392.85715"
           sodipodi:cy="400.93362"
           sodipodi:rx="192.85715"
           sodipodi:ry="188.57143"
           d="m 585.71429,400.93362 c 0,104.14513 -86.34508,188.57143 -192.85714,188.57143 C 286.34509,589.50505 200,505.07875 200,400.93362 200,296.7885 286.34509,212.3622 392.85715,212.3622 c 106.51206,0 192.85714,84.4263 192.85714,188.57142 z"
           transform="matrix(0.77777776,0,0,0.79545455,44.444448,120.58057)" />
        <path
           sodipodi:type="arc"
           style="fill:#ffffff;fill-opacity:1;stroke:none"
           id="path2985-7-3-8-5-1"
           sodipodi:cx="392.85715"
           sodipodi:cy="400.93362"
           sodipodi:rx="192.85715"
           sodipodi:ry="188.57143"
           d="m 585.71429,400.93362 c 0,104.14513 -86.34508,188.57143 -192.85714,188.57143 C 286.34509,589.50505 200,505.07875 200,400.93362 200,296.7885 286.34509,212.3622 392.85715,212.3622 c 106.51206,0 192.85714,84.4263 192.85714,188.57142 z"
           transform="matrix(0.64814813,0,0,0.66287879,95.370375,173.73465)" />
      </g>
      <path
         sodipodi:nodetypes="ascccccsscccccccssaccccccccccca"
         inkscape:connector-curvature="0"
         id="path3795-5-4-1-3-0"
         d="m 643.44389,235.98792 c 6.61932,-11.68758 25.31884,-16.53918 38.21456,-12.7821 10.33186,3.01012 11.26692,24.30534 9.27264,9.09826 0.31892,-14.0536 -6.03942,-26.68594 -14.0517,-35.482 14.96414,-0.80124 30.66776,3.9333 42.35666,15.26024 -10.64354,-17.64666 -28.29562,-27.2232 -45.38686,-33.60086 -6.7572,-1.6535 -12.14012,1.13022 -2.74394,-3.253 10.96804,-2.69018 27.64512,0.66972 41.39208,-0.5213 20.02212,-1.7347 26.4439,2.95236 -9.85915,-20.0588 -11.34348,-7.19022 -4.91389,-2.80184 -24.15063,-11.41424 8.69304,-0.9562 17.38604,-1.91244 26.07904,-2.86866 -8.4838,-10.60152 -32.86758,-7.2122 -35.23286,-8.82604 3.0363,-2.51508 17.9002,-6.79614 7.86606,-7.3739 -7.98426,-1.91406 -15.98242,0.36402 -23.97628,0.9004 0.37606,-4.53952 6.38568,-21.77174 -0.24966,-10.61822 -5.90076,5.54112 -26.60138,20.5979 -25.81962,13.40778 3.5837,-15.76256 1.41562,-24.71864 -0.35988,-36.88554 -2.32536,-15.93512 -0.38968,-12.33766 -10.59476,-7.2811 -11.12816,5.51392 -22.18908,31.76864 -29.99124,22.10606 -5.04526,-6.24828 21.38014,-14.42602 18.05952,-15.9473 -2.90914,-6.73706 -7.34322,-26.90182 -10.72264,-10.04142 -2.51054,6.761 -3.85432,21.38776 -6.15146,6.50036 -2.36334,-11.13846 -15.84074,-29.11018 -20.78362,-27.76022 6.81048,31.1873 4.02664,63.68216 5.34584,95.54744 0.46684,27.93556 0.9337,55.8711 1.40052,83.80668 10.82448,-0.2364 21.84254,4.86094 27.53374,15.99886 -7.6514,2.99714 2.33124,-18.10962 1.40654,-23.14416 11.67688,0.6731 23.55618,23.5927 26.27414,25.85778 0.0236,-9.19144 -2.50968,-20.44816 -4.4915,-27.49358 11.66008,5.8997 21.14828,17.36526 24.85206,31.71372 -1.8262,-8.28242 -9.66728,-17.46524 -5.4876,-24.84514 z"
         style="fill:#d45500;fill-opacity:1;stroke:none" />
      <path
         sodipodi:nodetypes="asccccccccccccccssaccccccccccca"
         inkscape:connector-curvature="0"
         id="path3795-5-8-0-8-8-1"
         d="m 518.13903,235.98792 c -6.61932,-11.68758 -25.31886,-16.53918 -38.21456,-12.7821 -10.33188,3.01012 -11.26692,24.30534 -9.27266,9.09826 -0.31892,-14.0536 6.03942,-26.68594 14.0517,-35.482 -14.96414,-0.80124 -30.66776,3.9333 -42.35666,15.26024 10.64354,-17.64666 28.29562,-27.2232 45.38688,-33.60086 6.75716,-1.6535 13.72418,-3.30514 2.74394,-3.253 -24.27416,-3.007 -29.8615,-8.89232 -53.49918,-1.12666 -13.63656,6.45382 6.5991,-9.09704 10.30658,-13.23028 16.63,-12.42714 15.93994,-9.02502 35.81028,-17.63742 -8.69302,-0.9562 -17.38602,-1.91244 -26.07904,-2.86866 8.48378,-10.6015 32.86758,-7.2122 35.23288,-8.82602 -3.03632,-2.5151 -17.90022,-6.79618 -7.86608,-7.37392 7.98426,-1.91404 15.98242,0.36404 23.9763,0.90038 -0.37604,-4.53948 -6.38572,-21.77172 0.24968,-10.61818 5.90074,5.54112 29.22192,2.25372 28.4402,-4.93638 -3.58372,-15.76258 -1.41564,-24.71864 0.35988,-36.88554 2.32536,-15.93512 0.38968,-12.33766 10.59474,-7.2811 11.12816,5.51392 33.18274,10.10382 29.99122,22.10602 -1.78332,6.70646 -24.0007,3.91816 -20.6801,2.3969 2.90916,-6.73708 7.34322,-26.90184 10.72266,-10.04144 2.51054,6.76102 3.8543,21.38778 6.15142,6.50038 2.36338,-11.13848 15.84078,-29.11018 20.78364,-27.76022 -6.81046,31.18726 -4.0266,63.68216 -5.34582,95.5474 -0.46684,27.9356 -0.93368,55.87114 -1.40052,83.80672 -10.8245,-0.2364 -21.84252,4.86096 -27.53376,15.99886 -7.32616,13.05058 -2.33122,-18.10962 -1.40654,-23.14416 -11.67686,0.67312 -23.55618,23.5927 -26.27414,25.8578 -0.0236,-9.19146 2.5097,-20.44818 4.4915,-27.49358 -11.66006,5.89968 -21.14824,17.36524 -24.85206,31.7137 1.8262,-8.28242 9.6673,-17.4652 5.48762,-24.84514 z"
         style="fill:#d45500;fill-opacity:1;stroke:none" />
      <path
         sodipodi:nodetypes="ccccccc"
         inkscape:connector-curvature="0"
         id="path4406"
         d="m 489.0495,131.83647 c 26.46599,-17.41871 59.67644,-17.95135 90.2534,-19.56973 25.59158,0.0102 51.0506,3.92684 75.86821,9.9947 14.10241,-4.13379 14.98831,4.05673 7.31111,15.17099 -24.17327,24.46344 -60.42575,31.5905 -93.61092,31.93044 -24.06672,-0.51146 -45.27021,-13.59828 -65.78178,-24.72103 -5.275,-3.54282 -10.13872,-7.76832 -14.04002,-12.80537 z"
         style="fill:#aa4400;fill-opacity:1;stroke:none" />
      <path
         inkscape:connector-curvature="0"
         id="path4115"
         d="m 597.66302,158.56162 c -1.65827,5.73433 -3.77338,11.71134 -2.40008,17.73463 0.58114,5.34223 1.59713,-2.34985 2.30248,-3.91343 1.85545,-6.63381 5.36958,-12.7676 10.41789,-17.48284 1.01024,-1.37605 5.54844,-4.39385 1.67537,-3.11407 -3.20035,0.66215 -6.40069,1.32429 -9.60103,1.98643 -0.7982,1.59643 -1.59645,3.19284 -2.39463,4.78928 z"
         style="fill:#803300;fill-opacity:1;stroke:none" />
      <path
         inkscape:connector-curvature="0"
         id="path4092"
         d="m 561.31848,176.6602 c -2.55025,-10.38764 -11.61109,-18.45205 -22.19963,-19.81814 -5.35979,-1.23796 -18.60457,-2.2159 -18.68405,4.01912 6.53223,-1.15343 12.58313,0.22735 18.58856,2.93798 8.24888,3.31233 16.04449,10.35561 16.6607,19.70593 2.72483,5.1394 4.09182,-6.00392 5.63442,-6.84489 z"
         style="fill:#aa4400;stroke:none" />
      <path
         sodipodi:nodetypes="csccc"
         inkscape:connector-curvature="0"
         id="path4423-1"
         d="m 524.1399,156.40303 c 11.39389,-1.18105 25.6811,3.59937 31.78573,14.77636 0.86153,1.57737 3.48928,14.20029 3.88949,3.73429 -1.47722,-8.46407 -9.14557,-16.65109 -19.40873,-18.10537 -4.66276,-1.05541 -11.83928,-2.18442 -16.26649,-0.40528 z"
         style="fill:#ff7f2a;fill-opacity:1;stroke:none" />
      <path
         sodipodi:nodetypes="cccccccac"
         inkscape:connector-curvature="0"
         id="path3841-5-2-0-4"
         d="m 554.88927,258.97604 c 1.0958,5.13198 5.52374,10.67232 7.78276,15.65672 2.2246,2.80538 6.52412,2.95132 8.3992,6.20168 1.37426,1.54852 2.90058,7.2361 3.58748,2.34596 0.39974,-4.04718 5.3943,-4.63932 5.07626,-0.001 0.31486,1.76818 2.25052,7.72292 2.62172,2.93316 0.23316,-3.46156 1.72338,-7.64918 5.56704,-8.37932 2.75584,-0.68466 5.6416,-3.10634 7.59012,-5.5651 4.98546,-6.291 7.5192,-17.542 9.42494,-22.15976"
         style="fill:#d45500;fill-opacity:1;stroke:none" />
      <path
         sodipodi:nodetypes="ccccc"
         inkscape:connector-curvature="0"
         id="path3817-4-0-8-7"
         d="m 538.82053,206.24438 c 5.79724,18.46124 10.42816,37.36076 17.03094,55.52454 7.92226,2.58506 17.13868,-4.95904 26.18692,-1.36132 8.5365,-10e-4 8.60372,4.66518 21.09096,-5.33436 6.6436,-18.13962 13.0726,-36.3623 19.63304,-54.53366"
         style="fill:#d45500;fill-opacity:1;stroke:none" />
      <path
         inkscape:connector-curvature="0"
         id="path4413"
         d="m 570.25142,172.01054 c 5.13713,13.67058 3.06137,29.93844 -4.34933,42.10535 -3.09627,5.39202 -1.85688,13.39779 3.13263,16.85818 2.5268,1.84006 5.77527,2.17986 8.65478,1.28726 4.80397,0.71123 10.2061,0.13497 14.08958,-3.35356 2.57172,-2.26464 2.85452,-6.45054 1.42852,-9.5481 -1.44907,-3.19328 -3.42223,-6.07253 -4.76949,-9.33558 -3.6131,-7.99592 -5.68223,-17.01179 -4.99826,-25.97949 -0.59003,-3.73734 1.38397,-7.17101 2.0337,-10.7258 -1.21984,-1.37944 -2.92251,2.60528 -4.50296,2.88377 -3.9196,1.46989 -8.11484,-1.02849 -10.71917,-4.19203 z"
         style="fill:#ff7f2a;stroke:none" />
      <path
         inkscape:connector-curvature="0"
         id="path4170"
         d="m 599.13481,241.85103 c 6.93664,-12.6745 11.9932,-27.42667 24.20369,-36.17281 1.51876,-1.14807 6.64135,-4.38449 3.49068,-0.7753 -4.29911,4.76164 -9.95594,8.93796 -11.62257,15.43333 -6.40407,12.18447 -13.00845,24.27724 -18.74232,36.79872 -3.65579,3.8958 -8.61613,6.11533 -12.85111,9.26845 -8.55932,0.34889 -17.83995,-2.75908 -22.8244,-10.07959 -6.48543,-5.49014 -6.79736,-14.65944 -10.88202,-21.6446 -3.64112,-7.4948 -7.07516,-15.14363 -10.57373,-22.66883 -4.14812,-3.78741 -8.29623,-7.57482 -12.44434,-11.36223 5.07981,2.63397 10.15961,5.26795 15.23942,7.90192 4.60484,9.99613 9.36871,19.93713 14.89107,29.46522 3.37911,2.1339 8.10284,3.3569 11.88214,1.70765 1.02785,-4.09707 -5.92511,-6.39032 -4.76477,-11.21034 0.0697,-4.342 4.76391,-6.944 8.72117,-6.24853 6.70464,-0.74676 14.79496,-0.53349 19.6208,4.87562 2.8471,3.32909 -1.11125,7.2111 -2.48563,10.34249 -2.46869,4.45445 3.52954,3.43375 6.18623,3.94659 0.98523,0.14075 1.97046,0.28149 2.95569,0.42224 z"
         style="fill:#aa4400;fill-opacity:1;stroke:none" />
      <path
         sodipodi:nodetypes="aaaa"
         inkscape:connector-curvature="0"
         id="path3823-3-2-9-2"
         d="m 564.89955,221.00948 c -3.6236,6.6933 5.43406,18.44782 13.03952,18.74428 7.71606,0.3008 17.87326,-10.9034 14.66944,-17.9293 -3.83378,-8.40746 -23.30976,-8.9409 -27.70896,-0.81498 z"
         style="fill:#803300;fill-opacity:1;stroke:none" />
      <path
         sodipodi:nodetypes="cccccccccccc"
         inkscape:connector-curvature="0"
         id="path3876-0-4-2-7"
         d="m 541.16953,211.29584 c 7.06306,14.91936 8.51726,18.6411 15.58032,33.56046 12.32686,-1.61878 25.41246,-2.86212 37.6106,-0.1366 4.33404,0.86804 7.53756,-1.90004 8.41366,-4.45302 2.2566,-5.28564 5.40876,-10.3653 7.91484,-15.60108 4.43378,-8.64916 2.28236,-4.84286 6.75218,-13.48352 -9.0627,11.9998 -7.56958,12.64162 -14.56456,25.20534 0.018,3.42896 -3.83874,7.02068 -9.2423,6.90216 -4.98136,-0.6597 -9.91464,-1.3655 -15.10126,-1.11484 -6.18098,-0.014 -12.35694,0.20188 -18.52328,0.4713 -5.93304,-2.40284 -5.927,-7.5847 -8.47024,-11.44696 -5.43988,-10.33558 -5.02484,-9.5416 -10.36996,-19.90326 z"
         style="fill:#ffffff;fill-opacity:1;stroke:none" />
      <path
         sodipodi:nodetypes="ccaac"
         inkscape:connector-curvature="0"
         id="path3999-1-0-0-8"
         d="m 577.72491,242.15586 c -14.41584,0.45022 -7.9515,1.24356 -21.49404,1.0474 2.04004,11.01558 9.17094,17.25554 17.59322,20.2843 5.08494,1.82862 11.49314,0.32136 15.98866,-2.6771 6.0407,-4.02908 8.23336,-10.57844 11.57548,-18.45316"
         style="fill:#ffffff;stroke:none" />
      <path
         sodipodi:nodetypes="ccccccc"
         inkscape:connector-curvature="0"
         id="path4102"
         d="m 601.14663,179.53078 c 7.52665,2.5907 16.61578,1.43575 22.41136,-4.3205 5.78291,-5.05434 10.888,-14.07696 11.1876,-21.82384 1.56096,5.46716 0.83783,7.26565 0.86462,9.43347 -0.8469,7.7957 -4.74406,16.33563 -12.61835,19.11675 -4.22319,1.67655 -8.89396,2.58553 -13.35571,1.29028 -3.01218,-0.74416 -5.85904,-2.06487 -8.48952,-3.69616 z"
         style="fill:#aa4400;fill-opacity:1;stroke:none" />
      <path
         inkscape:connector-curvature="0"
         id="path4423"
         d="m 605.21574,178.87853 c 9.63107,1.11809 21.09717,-3.2903 23.87729,-13.39756 1.03569,-3.45783 4.70864,-12.26112 2.93588,-3.73225 -1.24867,8.01286 -6.14731,16.55154 -14.82259,17.9283 -3.94135,0.99914 -8.24833,0.8858 -11.99058,-0.79849 z"
         style="fill:#ff7f2a;fill-opacity:1;stroke:none" />
      <path
         sodipodi:nodetypes="ccaccccc"
         inkscape:connector-curvature="0"
         id="path3224"
         d="m 600.68203,180.76348 c 7.34775,3.61143 16.43148,2.2674 23.04763,-2.30571 2.83502,-1.86543 5.40677,-4.17579 7.27056,-6.96753 2.98763,-4.47511 5.43237,-9.63103 5.8468,-15.0462 0.0636,-1.41485 -0.0698,-2.8753 -0.65918,-4.17894 -0.75969,13.05127 -10.39405,25.3154 -23.16015,28.5471 -4.04257,1.01198 -8.25966,0.22674 -12.34566,-0.0487 z"
         style="fill:#803300;stroke:none" />
      <g
         style="fill:#ffffff;fill-opacity:1"
         transform="matrix(1.1668552,0,0,1.1668552,167.16805,-355.48528)"
         id="g4084-7-7-3-1">
        <path
           style="fill:#ffffff;fill-opacity:1;stroke:none"
           d="m 382.93591,435.22815 c -7.22366,4.33876 -11.72563,12.41175 -11.81674,21.60169 8.76796,5.20751 17.27899,0.66818 22.04705,-5.1851 2.44459,-3.00098 8.09064,-11.46156 4.48188,-17.68182 -5.48372,-1.53643 -10.94131,-0.99967 -14.71219,1.26523 z"
           id="path3846-581-5-7-9"
           inkscape:connector-curvature="0"
           sodipodi:nodetypes="acsca" />
        <path
           style="fill:#ffffff;fill-opacity:1;stroke:none"
           d="m 367.95011,453.11826 c -125.30223,429.0449 -62.65112,214.52245 0,0 z"
           id="path3889-1-3-7-1"
           inkscape:connector-curvature="0"
           sodipodi:nodetypes="cc" />
      </g>
      <path
         sodipodi:nodetypes="acsca"
         inkscape:connector-curvature="0"
         id="path3846-5-6-0-8-3"
         d="m 547.36701,157.86062 c 5.97618,3.08491 9.64615,5.49705 12.50675,15.83235 0.74548,4.31371 -0.59223,-8.43321 -14.91503,-14.61631 -7.57398,-3.26966 -18.47062,-4.56002 -21.06436,-2.4103 5.72234,-3.37818 16.51109,-2.3993 23.47264,1.19426 z"
         style="fill:#ffffff;stroke:none" />
      <path
         inkscape:connector-curvature="0"
         id="path4115-4"
         d="m 563.697,155.49857 c 1.65827,5.73433 3.77338,11.71134 2.40008,17.73463 -0.58114,5.34223 -1.59713,-2.34985 -2.30248,-3.91343 -1.85545,-6.63381 -5.36958,-12.7676 -10.41789,-17.48284 -1.01024,-1.37605 -5.54844,-4.39385 -1.67537,-3.11407 3.20035,0.66215 6.40069,1.32429 9.60103,1.98643 0.7982,1.59643 1.59645,3.19284 2.39463,4.78928 z"
         style="fill:#803300;fill-opacity:1;stroke:none" />
      <path
         inkscape:connector-curvature="0"
         id="path3163-0-3-0-3"
         d="m 527.91515,201.16342 c 5.16404,4.10158 11.6578,7.17666 14.6992,13.36364 0.4029,0.98598 2.845,5.37216 1.66398,2.46326 -1.33858,-2.96492 -1.68432,-6.8094 -4.82148,-8.5388 -3.91072,-2.3253 -7.68712,-4.86978 -11.5417,-7.2881 z"
         style="fill:#ffffff;stroke:none" />
      <path
         inkscape:connector-curvature="0"
         id="path3163-2-5-5-8-3"
         d="m 630.22891,201.76512 c -5.16404,4.10158 -11.6578,7.17666 -14.6992,13.36364 -0.4029,0.98598 -2.845,5.37216 -1.66398,2.46326 1.33858,-2.96492 1.68432,-6.8094 4.82148,-8.5388 3.91072,-2.3253 7.68712,-4.86978 11.5417,-7.2881 z"
         style="fill:#ffffff;stroke:none" />
      <path
         inkscape:connector-curvature="0"
         id="path4176"
         d="m 631.38758,190.29064 c 5.18737,6.57438 7.17805,14.67458 3.96344,22.62068 -1.24417,7.18868 6.18468,-3.03123 6.74845,-5.80535 3.29119,-7.54184 -2.67646,-16.39097 -10.71189,-16.81533 z"
         style="fill:#aa4400;fill-opacity:1;stroke:none" />
      <path
         inkscape:connector-curvature="0"
         id="path3967-04-5-9-9"
         d="m 632.84099,192.39884 c 4.06472,1.43532 6.21564,9.0329 4.05968,15.4251 -0.6185,2.298 -2.9844,5.95344 -0.3752,3.41454 3.00798,-2.82902 3.67228,-10.6962 1.32214,-14.9474 -1.29218,-2.66312 -3.189,-3.15944 -5.00662,-3.89224 z"
         style="fill:#ff7f2a;fill-opacity:1;stroke:none" />
      <path
         inkscape:connector-curvature="0"
         id="path4176-7"
         d="m 529.3694,188.29436 c -5.18737,6.57438 -7.17805,14.67458 -3.96344,22.62068 1.24417,7.18868 -6.18468,-3.03123 -6.74845,-5.80535 -3.29119,-7.54184 2.67646,-16.39097 10.71189,-16.81533 z"
         style="fill:#aa4400;fill-opacity:1;stroke:none" />
      <path
         inkscape:connector-curvature="0"
         id="path3967-0-9-0-1-7"
         d="m 526.90101,189.93422 c -4.06472,1.43532 -6.21564,9.0329 -4.05968,15.4251 0.6185,2.298 2.9844,5.95344 0.3752,3.41454 -3.00798,-2.82902 -3.67228,-10.6962 -1.32214,-14.9474 1.29218,-2.66312 3.189,-3.15944 5.00662,-3.89224 z"
         style="fill:#ff7f2a;fill-opacity:1;stroke:none" />
      <g
         transform="matrix(0.9935702,0,0,0.79307668,230.32765,-209.58298)"
         id="g4208-9-0-9-6-7-2">
        <path
           style="fill:#502d16;stroke:none"
           d="m 290.99218,365.54602 c -17.03165,5.58748 -39.01674,10.78656 -44.53762,30.49494 -6.15751,16.78595 9.84436,30.71977 21.16734,40.54963 32.1587,24.07201 74.64734,35.623 114.05136,25.00491 27.85826,-6.85832 55.71284,-22.3046 69.70606,-48.21752 9.54507,-17.96451 -8.66816,-34.69395 -24.03596,-41.0551 -22.66624,-11.13692 -48.91842,-11.58573 -73.72381,-12.73108 -20.90963,-0.0724 -42.17894,1.43018 -62.62737,5.95422 z"
           id="path4164-4-5-4-1-5-2"
           inkscape:connector-curvature="0" />
        <path
           style="fill:#502d16;fill-opacity:1;stroke:none"
           d="m 408.13519,395.0183 c -0.56144,-18.28287 -0.40947,-36.63377 -1.42565,-54.87391 -2.10477,-7.90605 -1.38599,-17.07409 -7.33224,-23.37226 -4.44732,-7.39605 -12.94783,-11.8127 -21.54771,-11.52816 -10.89375,1.66805 -22.35436,5.99071 -33.11524,1.2136 -11.15028,-1.1088 -22.5755,-4.53001 -33.5877,-0.86703 -10.56925,4.77355 -14.93753,14.57762 -16.00058,25.61102 -2.4553,7.93361 -3.03572,16.12316 -3.08522,24.3631 -0.47391,13.64864 -0.94782,27.29727 -1.42173,40.94591 7.37568,4.12293 14.24033,9.5883 22.87258,10.71646 9.53976,2.8156 19.20655,5.02936 29.2086,4.83192 11.77685,0.85897 23.6585,-0.2233 35.29085,-1.92614 10.62781,-2.35676 20.52629,-6.83541 30.51711,-11.01077 -0.12436,-1.36791 -0.24871,-2.73583 -0.37307,-4.10374 z"
           id="path4169-8-4-8-0-0-3"
           inkscape:connector-curvature="0" />
        <path
           style="fill:#ffffff;fill-opacity:1;stroke:none"
           d="m 291.73832,370.02282 c 7.16253,3.39636 14.28252,7.27064 22.21546,8.49196 11.68498,3.56675 23.98771,3.4374 36.05639,4.251 8.26823,0.41309 16.51654,-0.46345 24.72467,-1.27675 11.44863,-1.8374 22.22703,-6.31188 33.02728,-10.34701 3.78075,7.64309 5.30068,16.52591 3.59993,24.93185 -6.00564,4.41625 -11.96168,9.32513 -19.3345,11.2099 -10.30442,4.04028 -21.51567,4.44137 -32.34399,6.00087 -18.01771,0.0469 -36.44084,-0.74854 -53.46199,-7.2638 -6.12425,-2.27912 -13.80191,-4.35102 -16.30026,-11.15987 -1.57047,-4.37273 1.67177,-8.39826 1.55045,-12.78218 0.32037,-4.01178 0.01,-8.04169 0.26656,-12.05597 z"
           id="path4173-2-2-4-2-5-5"
           inkscape:connector-curvature="0" />
      </g>
      <path
         inkscape:connector-curvature="0"
         id="path4380-8"
         d="m 664.22061,89.908079 c 8.83694,5.679393 18.7558,15.623071 15.21585,27.081391 -4.30619,9.47332 -14.46826,14.38779 -22.53408,20.21811 -5.26286,3.20962 -17.69207,8.8814 -19.35765,8.73831 12.62044,-8.11721 26.96732,-14.52996 36.67493,-26.34489 5.36578,-8.24606 -0.34659,-18.37278 -7.43133,-23.420755 -1.63796,-1.636758 -2.79928,-3.897083 -2.56772,-6.272166 z"
         style="fill:#28170b;fill-opacity:1;stroke:none" />
      <g
         transform="matrix(2,0,0,2,314.20665,-1198.7361)"
         id="g4326-8-5-2-4">
        <path
           style="fill:#d45500;fill-opacity:1;stroke:none"
           d="m 153.7836,651.97058 c 1.78164,-7.17814 4.45939,-14.56616 9.9038,-19.85482 4.36717,-4.46869 9.98442,-7.34775 15.21827,-10.64034 0.0968,6.83886 2.06987,13.87814 -0.18006,20.57124 -1.43795,3.53334 -1.8923,7.74431 -4.91586,10.3972 -3.72091,5.08544 -9.36352,8.17356 -13.93788,12.37424 -7.26538,7.47286 -5.18086,-0.76617 -5.3652,-2.66567 -0.36495,-2.21228 -0.70008,-4.38389 -0.8087,-6.59654 -0.0586,-1.194 -0.20235,-2.42506 0.0856,-3.58531 z"
           id="path4108-9-1-9-6"
           inkscape:connector-curvature="0"
           sodipodi:nodetypes="accccccaa" />
        <path
           style="fill:#d45500;fill-opacity:1;stroke:none"
           d="m 160.5356,666.68835 11.13392,-2.07143 -9.32142,0.51786 7.76785,-4.91964 -5.95535,2.07143 7.25,-6.47321 -11.39285,6.47321 -5.4375,-9.32143 0,8.02678 -3.10714,-4.66071 2.58928,5.95536 -2.33035,-1.03572 3.10714,6.47321"
           id="path4197-8-9-9-3-3"
           inkscape:connector-curvature="0" />
        <path
           style="fill:#ff7f2a;fill-opacity:1;stroke:none"
           d="m 176.01432,636.72254 c -3.30078,3.644 -7.69386,6.34806 -10.2907,10.56723 -2.9516,4.31271 -5.40694,9.14297 -6.04884,14.38971 1.73461,0.16696 3.04744,-1.2248 4.22527,-2.29242 1.24164,-1.20468 2.42884,-2.49102 3.8778,-3.45097 3.51513,-3.0424 6.59739,-6.84268 7.82627,-11.40261 1.27506,-3.23142 2.46042,-6.54302 2.98701,-9.98892 0.25783,-1.1249 -0.11529,-0.86388 -0.57215,-0.20255 -0.66822,0.79351 -1.30821,1.61167 -2.00466,2.38053 z"
           id="path4240-3-2-6-5-5"
           inkscape:connector-curvature="0"
           sodipodi:nodetypes="accccccca" />
        <path
           style="fill:#d45500;fill-opacity:1;stroke:none"
           d="m 159.37043,662.15709 c 0.71083,-3.19054 2.18825,-8.38161 3.59666,-9.94305 -0.23434,1.75873 -2.26724,5.08788 -1.2267,5.8528 0.40219,-0.50639 1.66316,-2.56872 1.50478,-2.05944 -0.60111,1.40258 -1.20221,2.80515 -1.80332,4.20773 1.16518,-1.16518 2.33036,-2.33036 3.49554,-3.49554 -0.82936,2.71966 -3.06314,4.38066 -5.56696,5.4375 z"
           id="path4285-2-6-8-3"
           inkscape:connector-curvature="0" />
      </g>
      <g
         transform="matrix(2,0,0,2,298.88305,-1198.0038)"
         id="g4319-4-6-2-7">
        <path
           style="fill:#d45500;fill-opacity:1;stroke:none"
           d="m 120.36279,650.00366 c -1.7608,-7.18328 -4.41709,-14.57905 -9.84613,-19.88348 -4.35418,-4.48135 -9.96305,-7.37671 -15.187328,-10.68447 -0.116605,6.83854 -2.110135,13.87207 0.120354,20.57167 1.427691,3.5375 1.86981,7.74977 4.885654,10.41143 3.70614,5.09622 9.33976,8.2007 13.90191,12.41464 7.24366,7.49392 5.18306,-0.75113 5.37292,-2.65008 0.37137,-2.21122 0.71279,-4.38184 0.82784,-6.59416 0.0621,-1.19383 0.20939,-2.42447 -0.0752,-3.58555 z"
           id="path4108-2-5-7-8-0"
           inkscape:connector-curvature="0"
           sodipodi:nodetypes="accccccaa" />
        <path
           sodipodi:type="arc"
           style="fill:#d45500;fill-opacity:1;stroke:none"
           id="path4195-7-7-9-9"
           sodipodi:cx="118.20081"
           sodipodi:cy="665.26422"
           sodipodi:rx="6.3437457"
           sodipodi:ry="3.6249976"
           d="m 124.54456,665.26422 c 0,2.00203 -2.84019,3.625 -6.34375,3.625 -3.50355,0 -6.34374,-1.62297 -6.34374,-3.625 0,-2.00203 2.84019,-3.625 6.34374,-3.625 3.50356,0 6.34375,1.62297 6.34375,3.625 z"
           transform="matrix(0.6122449,0,0,0.82142858,45.444576,118.66772)" />
        <path
           style="fill:#d45500;fill-opacity:1;stroke:none"
           d="m 113.87823,665.85864 -10.45768,-4.34647 9.00878,2.44926 -6.57191,-6.43058 5.39284,3.26715 -5.74164,-7.8421 9.79351,8.70556 7.26086,-7.98344 -1.67294,7.8505 4.01029,-3.91076 -3.77364,5.28491 2.49504,-0.52728 -4.38805,5.68347"
           id="path4197-0-6-9-9"
           inkscape:connector-curvature="0" />
        <path
           style="fill:#ff7f2a;fill-opacity:1;stroke:none"
           d="m 99.784063,636.01547 c 3.300787,3.644 7.693867,6.34806 10.290707,10.56723 2.9516,4.31271 5.40694,9.14297 6.04884,14.38971 -1.73461,0.16696 -3.04744,-1.2248 -4.22527,-2.29242 -1.24164,-1.20468 -2.42884,-2.49102 -3.8778,-3.45097 -3.51513,-3.0424 -6.59739,-6.84268 -7.82627,-11.40261 -1.275062,-3.23142 -2.460428,-6.54302 -2.98701,-9.98892 -0.257831,-1.1249 0.115287,-0.86388 0.572143,-0.20255 0.66822,0.79351 1.308217,1.61167 2.00466,2.38053 z"
           id="path4240-0-0-1-0"
           inkscape:connector-curvature="0"
           sodipodi:nodetypes="accccccca" />
        <path
           style="fill:#d45500;fill-opacity:1;stroke:none"
           d="m 116.06465,661.30273 c -0.71083,-3.19054 -2.18825,-8.38161 -3.59666,-9.94305 0.23434,1.75873 2.26724,5.08788 1.2267,5.8528 -0.40219,-0.50639 -1.66316,-2.56872 -1.50478,-2.05944 0.60111,1.40258 1.20221,2.80515 1.80332,4.20773 -1.16518,-1.16518 -2.33036,-2.33036 -3.49554,-3.49554 0.82936,2.71966 3.06314,4.38066 5.56696,5.4375 z"
           id="path4285-3-8-7-8-1"
           inkscape:connector-curvature="0" />
      </g>
      <path
         sodipodi:nodetypes="ccccccc"
         inkscape:connector-curvature="0"
         id="path3224-5"
         d="m 557.85028,181.36826 c 2.41306,-7.82362 0.91555,-8.6829 -4.63957,-14.49903 -2.28739,-2.507 -5.17526,-4.35103 -8.18833,-5.85811 -4.76711,-2.48466 -10.19872,-4.08136 -15.6118,-3.64048 -1.40729,0.15932 -2.82869,0.52035 -4.02363,1.30709 13.00869,-1.29875 26.63331,6.29069 31.82918,18.39111 1.27142,4.29979 -0.57126,-3.28335 0.63417,4.29941 z"
         style="fill:#803300;stroke:none" />
      <path
         inkscape:connector-curvature="0"
         id="path3967-0-9-0-1-7-7"
         d="m 524.17393,190.23292 c -4.06472,1.43532 -6.21564,9.0329 -4.05968,15.4251 0.6185,2.298 2.9844,5.95344 0.3752,3.41454 -3.00798,-2.82902 -3.67228,-10.6962 -1.32214,-14.9474 1.29218,-2.66312 3.189,-3.15944 5.00662,-3.89224 z"
         style="fill:#803300;fill-opacity:1;stroke:none" />
      <path
         inkscape:connector-curvature="0"
         id="path3967-0-9-0-1-7-7-3"
         d="m 635.43273,192.20839 c 4.06472,1.43532 6.21564,9.0329 4.05968,15.4251 -0.6185,2.298 -2.9844,5.95344 -0.3752,3.41454 3.00798,-2.82902 3.67228,-10.6962 1.32214,-14.9474 -1.29218,-2.66312 -3.189,-3.15944 -5.00662,-3.89224 z"
         style="fill:#803300;fill-opacity:1;stroke:none" />
      <path
         inkscape:connector-curvature="0"
         id="path4141"
         d="m 625.38047,133.76407 c -0.55253,-1.68553 -3.07629,-5.73055 -1.92023,-5.90335 0.53533,1.50418 3.56859,5.669 2.10669,1.77253 -3.18142,-7.61994 -4.69737,-16.11427 -3.18139,-24.31165 1.87912,-10.50212 6.90064,-20.132191 12.35889,-29.181974 1.76254,-2.677554 3.77727,-5.199357 6.09593,-7.41757 0.0462,3.179053 -3.2916,7.46135 -4.62347,10.983266 -4.546,8.781373 -9.8353,18.062977 -9.00284,28.323048 -0.21292,6.2596 -0.69286,13.22738 3.03002,18.63669 2.18246,2.75902 6.11058,2.37503 8.92396,1.40533 -1.33809,0.76891 -7.71576,3.22784 -3.35563,3.27376 2.27032,-0.16393 -6.67659,1.79676 -3.57143,2.23646 3.23631,-0.56601 -2.94271,0.0173 -4.08536,0.0279 -0.92486,0.0549 -1.84992,0.10822 -2.77514,0.15557 z"
         style="fill:#aa4400;fill-opacity:1;stroke:none" />
      <path
         inkscape:connector-curvature="0"
         id="path4141-5"
         d="m 536.49421,133.26633 c 0.55253,-1.68553 3.07629,-5.73055 1.92023,-5.90335 -0.53533,1.50418 -3.56859,5.669 -2.10669,1.77253 3.18142,-7.61994 4.69737,-16.11427 3.18139,-24.31165 -1.87912,-10.502119 -6.90064,-20.132189 -12.35889,-29.181971 -1.76254,-2.677554 -3.77727,-5.199357 -6.09593,-7.41757 -0.0462,3.179053 3.2916,7.46135 4.62347,10.983262 4.546,8.78138 9.8353,18.06298 9.00284,28.323049 0.21292,6.2596 0.69286,13.22738 -3.03002,18.63669 -2.18246,2.75902 -6.11058,2.37503 -8.92396,1.40533 1.33809,0.76891 7.71576,3.22784 3.35563,3.27376 -2.27032,-0.16393 6.67659,1.79676 3.57143,2.23646 -3.23631,-0.56601 2.94271,0.0173 4.08536,0.0279 0.92486,0.0549 1.84992,0.10822 2.77514,0.15557 z"
         style="fill:#aa4400;fill-opacity:1;stroke:none" />
      <path
         inkscape:connector-curvature="0"
         id="path4208"
         d="m 679.72749,173.65659 c -3.78808,0.56659 -14.05804,1.32774 -12.4296,5.46481 8.74465,0.93207 16.87931,4.47673 25.12092,7.30205 -13.93362,-2.29562 -27.79925,-5.47559 -41.96626,-5.90555 9.46711,-3.34156 19.05326,-7.16023 29.27494,-6.86131 z"
         style="fill:#aa4400;fill-opacity:1;stroke:none" />
      <path
         sodipodi:nodetypes="ccccc"
         inkscape:connector-curvature="0"
         id="path4208-5"
         d="m 693.50836,140.29357 c -3.78808,0.56659 -16.80257,0.4129 -15.17413,4.54997 12.86144,4.59144 15.50705,7.22126 23.74866,10.04658 -13.93362,-2.29562 -26.42699,-8.22012 -40.594,-8.65008 9.46711,-3.34156 21.79779,-6.24539 32.01947,-5.94647 z"
         style="fill:#aa4400;fill-opacity:1;stroke:none" />
      <path
         inkscape:connector-curvature="0"
         id="path4236"
         d="m 689.33333,196.52763 -7.31873,-0.45742 -5.48905,0 7.77615,10.9781 -13.72262,-12.80778 14.18004,0.91484 z"
         style="fill:#aa4400;fill-opacity:1;stroke:none" />
      <path
         inkscape:connector-curvature="0"
         id="path4238"
         d="m 483.95134,143.46681 -16.00973,7.31873 25.61557,-7.31873 -21.95621,-3.20195 z"
         style="fill:#aa4400;fill-opacity:1;stroke:none" />
      <path
         inkscape:connector-curvature="0"
         id="path4240"
         d="m 486.23844,173.19917 12.35037,2.74452 -17.83942,5.48905 32.01947,-6.40389 z"
         style="fill:#aa4400;fill-opacity:1;stroke:none" />
      <path
         inkscape:connector-curvature="0"
         id="path4242"
         d="m 477.09002,196.52763 c 3.04947,0.15247 6.09895,0.30495 9.14842,0.45742 -3.50718,4.60738 -8.02146,8.96921 -9.08817,14.90066 3.93379,-5.1276 7.66634,-10.80908 13.68243,-13.68121 3.50009,-2.23616 7.00017,-4.47233 10.50026,-6.7085 -8.08098,1.67723 -16.16199,3.35427 -24.24294,5.03163 z"
         style="fill:#aa4400;fill-opacity:1;stroke:none" />
      <path
         inkscape:connector-curvature="0"
         id="path4264"
         d="m 544.68212,131.83647 c 0.56174,2.25434 -0.29859,4.70672 -2.01577,6.23759 -2.53965,2.30894 -6.28525,3.2611 -9.61394,2.40639 -3.02754,-0.50588 -5.62863,-2.29181 -8.52033,-3.22161 -0.65048,-0.34806 -1.37955,0.13373 -0.61258,0.70086 2.12239,2.90323 5.55756,4.55022 9.03738,5.14271 2.80265,0.52529 5.66987,0.47468 8.50462,0.41042 1.82572,0.27285 3.84697,-0.42258 4.85157,-2.03122 1.59566,-2.51866 1.17952,-5.99098 -0.60153,-8.30564 -0.38055,-0.42819 -0.74373,-0.83969 -1.02942,-1.3395 z"
         style="fill:#784421;stroke:none" />
      <path
         inkscape:connector-curvature="0"
         id="path4264-8"
         d="m 617.92739,130.17417 c -0.56174,2.25434 0.29859,4.70672 2.01577,6.23759 2.53965,2.30894 6.28525,3.2611 9.61394,2.40639 3.02754,-0.50588 5.62863,-2.29181 8.52033,-3.22161 0.65048,-0.34806 1.37955,0.13373 0.61258,0.70086 -2.12239,2.90323 -5.55756,4.55022 -9.03738,5.14271 -2.80265,0.52529 -5.66987,0.47468 -8.50462,0.41042 -1.82572,0.27285 -3.84697,-0.42258 -4.85157,-2.03122 -1.59566,-2.51866 -1.17952,-5.99098 0.60153,-8.30564 0.38055,-0.42819 0.74373,-0.83969 1.02942,-1.3395 z"
         style="fill:#784421;stroke:none" />
      <path
         inkscape:connector-curvature="0"
         id="path4294"
         d="m 594.81616,36.420063 c -12.12152,3.681445 -24.40992,7.440643 -35.3065,14.067873 -8.59184,-1.132237 -1.42813,-10.277006 4.1836,-9.947712 9.72888,-3.200465 20.20063,-1.793494 30.13087,-4.010661 l 0.99203,-0.1095 z"
         style="fill:#28170b;fill-opacity:1;stroke:none" />
      <path
         inkscape:connector-curvature="0"
         id="path4304"
         d="m 610.0181,38.03729 c -10.35987,2.624081 -20.55561,7.049715 -28.49488,14.304393 -5.72405,4.876892 -2.46949,13.492181 3.8109,15.953232 9.27763,4.786865 20.05714,0.744976 27.95036,-4.883646 6.27573,-4.205657 11.80826,-12.75095 7.38507,-20.15584 -2.17622,-3.864168 -7.00772,-3.730595 -10.65145,-5.218139 z"
         style="fill:#784421;fill-opacity:1;stroke:none" />
      <path
         inkscape:connector-curvature="0"
         id="path4312"
         d="m 552.44481,35.773172 c -7.38065,-0.104467 -16.18479,2.428437 -18.4592,10.346114 -3.46471,4.811362 1.06351,16.161988 6.91385,9.395624 3.90751,-5.352388 6.53836,-12.16027 12.87858,-15.223792 2.06295,-1.544359 10.13787,-3.15397 8.9694,-3.929219 -3.43421,-0.196243 -6.86842,-0.392485 -10.30263,-0.588727 z"
         style="fill:#784421;fill-opacity:1;stroke:none" />
      <path
         inkscape:connector-curvature="0"
         id="path4322"
         d="m 630.7186,47.093762 c 3.23693,9.362252 4.68552,19.950962 1.06359,29.422722 -1.45077,3.617438 -3.48048,7.332168 -7.10815,9.151393 -4.73,2.559521 -10.14026,3.314952 -15.22363,4.889405 -8.92333,2.050287 -18.07237,3.398379 -27.24862,3.112623 7.97832,-1.185967 15.95664,-2.371933 23.93496,-3.5579 6.64915,-2.738 14.26467,-4.387999 19.23954,-9.976063 2.62345,-3.058737 3.67734,-7.07464 4.78852,-10.860138 1.77218,-7.254282 1.45534,-14.828648 0.55379,-22.182042 z"
         style="fill:#28170b;fill-opacity:1;stroke:none" />
      <path
         inkscape:connector-curvature="0"
         id="path4338"
         d="m 543.38834,114.69386 c 21.66469,4.57887 44.24369,4.0223 66.07277,0.92551 5.18835,-0.68059 17.61064,-4.30338 6.03489,-0.19921 -22.01286,7.69505 -46.22334,6.95904 -68.74478,2.18205 -1.38355,-0.58748 -2.62213,-1.58309 -3.36288,-2.90835 z"
         style="fill:#28170b;fill-opacity:1;stroke:none" />
      <path
         inkscape:connector-curvature="0"
         id="path4346"
         d="m 546.29934,130.54269 c 2.0761,3.85906 4.46966,8.74473 1.35215,12.72334 -1.66922,2.21243 -10.87823,2.02476 -4.26873,2.11545 6.89444,0.37637 11.35755,-8.50718 5.25213,-12.86117 -0.7325,-0.71161 -1.52661,-1.35587 -2.33555,-1.97762 z"
         style="fill:#28170b;fill-opacity:1;stroke:none" />
      <path
         inkscape:connector-curvature="0"
         id="path4346-4"
         d="m 616.13605,129.26296 c -2.0761,3.85906 -4.46966,8.74473 -1.35215,12.72334 1.66922,2.21243 10.87823,2.02476 4.26873,2.11545 -6.89444,0.37637 -11.35755,-8.50718 -5.25213,-12.86117 0.7325,-0.71161 1.52661,-1.35587 2.33555,-1.97762 z"
         style="fill:#28170b;fill-opacity:1;stroke:none" />
      <path
         inkscape:connector-curvature="0"
         id="path4380"
         d="m 491.31362,89.141669 c -8.83694,5.679393 -18.7558,15.623071 -15.21585,27.081391 4.30619,9.47332 14.46826,14.38779 22.53408,20.21811 5.26286,3.20962 17.69207,8.8814 19.35765,8.73831 -12.62044,-8.11721 -26.96732,-14.52996 -36.67493,-26.34489 -5.36578,-8.24606 0.34659,-18.37278 7.43133,-23.420755 1.63796,-1.636758 2.79928,-3.897083 2.56772,-6.272166 z"
         style="fill:#28170b;fill-opacity:1;stroke:none" />
    </g>
    <g
       id="g3270">
      <path
         transform="translate(-0.67730466,0.67730466)"
         d="m 248.5708,293.44232 a 7.4503512,10.498222 0 1 1 -14.9007,0 7.4503512,10.498222 0 1 1 14.9007,0 z"
         sodipodi:ry="10.498222"
         sodipodi:rx="7.4503512"
         sodipodi:cy="293.44232"
         sodipodi:cx="241.12045"
         id="path3266"
         style="fill:#000000;fill-opacity:1;stroke:none"
         sodipodi:type="arc" />
      <path
         d="m 249.24811,288.36252 a 3.7251756,4.7411327 0 1 1 -7.45035,0 3.7251756,4.7411327 0 1 1 7.45035,0 z"
         sodipodi:ry="4.7411327"
         sodipodi:rx="3.7251756"
         sodipodi:cy="288.36252"
         sodipodi:cx="245.52293"
         id="path3268"
         style="fill:#ffffff;fill-opacity:1;stroke:none"
         sodipodi:type="arc" />
    </g>
  </g>
</svg>
